<?xml version="1.0" encoding="UTF-8"?>
<!DOCTYPE svg PUBLIC "-//W3C//DTD SVG 1.1//EN" "http://www.w3.org/Graphics/SVG/1.1/DTD/svg11.dtd">
<svg version="1.1" xmlns="http://www.w3.org/2000/svg" xmlns:xlink="http://www.w3.org/1999/xlink" x="0" y="0" width="352.295" height="118.736" viewBox="0, 0, 352.295, 118.736">
  <g id="Layer_1" transform="translate(-323.853, -440.632)">
    <path d="M420.081,443.078 Q420.081,444.546 417.064,450.255 Q414.047,455.963 411.6,467.869 Q410.948,470.642 409.48,470.642 Q408.338,470.642 408.338,469.5 L408.338,468.522 Q408.827,465.097 408.827,462.487 Q408.827,454.495 403.527,449.765 Q398.226,445.035 389.255,445.035 Q379.306,445.035 372.538,450.907 Q365.769,456.779 365.769,465.423 Q365.769,474.556 377.349,486.137 L387.135,495.923 Q400.183,508.97 400.183,522.182 Q400.183,537.35 388.522,548.114 Q376.86,558.879 360.224,558.879 Q350.601,558.879 344.077,555.291 Q343.261,554.801 336.901,550.072 Q335.106,548.767 333.312,548.767 Q329.561,548.767 327.115,556.759 Q326.462,559.042 325.32,559.042 Q323.853,559.042 323.853,557.411 Q323.853,557.248 325.32,553.66 Q330.703,540.449 334.943,527.727 Q336.248,523.812 338.205,523.812 Q339.347,523.812 339.347,524.954 Q339.347,525.28 338.695,526.911 Q337.553,528.706 337.553,535.066 Q337.553,555.617 360.387,555.617 Q371.967,555.617 379.225,548.93 Q386.483,542.243 386.483,531.478 Q386.483,519.083 375.229,508.644 L366.095,500.163 Q352.232,487.278 352.232,474.72 Q352.232,461.509 362.996,451.886 Q373.761,442.263 388.603,442.263 Q396.758,442.263 404.913,445.688 Q409.969,447.808 411.437,447.808 Q414.536,447.808 417.309,443.568 Q418.287,441.937 419.103,441.937 Q420.081,441.937 420.081,443.078 z" fill="#000000"/>
    <path d="M470.805,498.695 Q470.805,506.687 464.118,506.687 Q461.835,506.687 460.041,504.975 Q458.247,503.262 458.247,501.142 Q458.247,497.227 462.65,497.227 L463.955,497.39 Q465.097,497.88 465.912,498.043 Q467.217,498.043 467.217,496.249 Q467.217,493.639 464.037,491.6 Q460.856,489.562 456.942,489.562 Q444.872,489.562 433.618,507.503 Q422.038,525.933 422.038,541.917 Q422.038,555.617 434.434,555.617 Q443.731,555.617 453.19,544.363 Q454.821,542.406 455.8,542.406 Q456.616,542.406 456.616,543.384 Q456.616,545.342 452.375,549.582 Q443.078,558.879 431.498,558.879 Q420.897,558.879 414.454,552.763 Q408.012,546.646 408.012,536.534 Q408.012,519.409 426.279,501.468 Q441.284,486.626 457.268,486.626 Q463.303,486.626 467.054,489.969 Q470.805,493.313 470.805,498.695 z" fill="#000000"/>
    <path d="M541.59,544.689 Q541.59,545.831 538.492,548.441 Q526.911,558.227 517.452,558.227 Q512.885,558.227 510.112,555.698 Q507.34,553.17 507.34,549.093 Q507.34,545.668 511.254,536.86 L525.607,504.73 Q529.195,496.738 529.195,494.781 Q529.195,489.725 523.813,489.725 Q517.125,489.725 507.503,498.858 Q500.163,505.872 496.33,511.58 Q492.497,517.289 487.278,529.195 L476.677,553.007 Q475.372,556.106 474.883,556.596 Q474.393,557.085 472.926,557.085 Q472.273,557.085 468.522,556.759 Q463.466,557.085 462.895,557.248 Q462.324,557.411 461.672,557.411 Q461.019,557.411 461.019,556.922 Q461.019,556.269 462.161,553.66 L507.013,451.559 Q509.46,446.014 509.46,445.199 Q509.46,443.894 508.726,443.731 Q507.992,443.568 503.425,443.568 Q499.511,443.568 499.511,441.937 Q499.511,441.121 500.652,441.121 Q501.794,441.121 502.447,441.284 L514.516,441.447 Q518.104,441.447 521.366,440.958 Q523.323,440.632 523.976,440.632 Q525.444,440.632 525.444,441.773 Q525.444,442.915 524.791,443.731 Q523.649,446.503 522.671,448.134 L496.249,506.687 Q506.524,495.107 513.374,490.622 Q520.224,486.137 527.727,486.137 Q533.762,486.137 537.594,488.991 Q541.427,491.845 541.427,496.249 Q541.427,501.142 537.676,509.786 L522.834,543.874 Q520.061,550.235 520.061,551.539 Q520.061,553.986 522.508,553.986 Q527.89,553.986 537.513,545.831 Q539.959,543.711 540.775,543.711 Q541.59,543.711 541.59,544.689 z" fill="#000000"/>
    <path d="M611.234,494.128 Q611.234,497.39 609.114,499.755 Q606.993,502.12 604.221,502.12 Q601.611,502.12 601.611,500.326 Q601.611,500.326 601.937,498.695 Q602.263,497.717 602.263,496.901 Q602.263,492.987 598.349,492.987 Q593.619,492.987 585.138,502.12 Q576.657,511.254 569.154,527.727 L557.411,553.497 Q555.78,557.248 554.638,557.248 Q551.376,556.759 549.582,556.759 Q546.81,556.759 545.179,557.085 L544.2,557.085 Q542.732,557.085 542.732,556.432 Q542.732,556.269 543.221,555.78 L544.037,554.149 L571.601,491.519 Q571.601,490.214 569.48,490.214 Q569.643,490.214 568.828,490.214 Q568.176,490.377 566.708,490.377 L565.077,490.377 Q562.63,490.377 562.63,489.235 Q562.63,488.257 571.111,487.931 Q579.593,487.604 582.528,486.463 Q583.833,486.137 583.996,486.137 Q584.975,486.137 584.975,487.115 Q584.975,487.931 582.854,493.15 L576.82,507.829 Q591.825,486.952 603.242,486.952 Q611.234,486.952 611.234,494.128 z" fill="#000000"/>
    <path d="M676.147,464.281 Q676.147,467.869 673.538,470.397 Q670.928,472.926 667.34,472.926 Q660.327,472.926 660.327,466.402 Q660.327,462.487 662.936,459.796 Q665.546,457.105 669.46,457.105 Q676.147,457.105 676.147,464.281 z M648.584,464.771 Q648.584,468.359 645.974,470.805 Q643.364,473.252 639.613,473.252 Q632.763,473.252 632.763,466.565 Q632.763,462.65 635.454,460.041 Q638.145,457.431 642.223,457.431 Q648.584,457.431 648.584,464.771 z M672.233,512.885 Q672.233,531.967 654.781,547.299 Q641.081,559.368 626.239,559.368 Q616.127,559.368 609.603,552.355 Q603.079,545.342 603.079,534.251 Q603.079,524.791 608.461,514.842 Q613.843,504.893 622.814,497.88 Q636.84,486.952 649.888,486.952 Q659.838,486.952 666.035,494.128 Q672.233,501.305 672.233,512.885 z M659.674,502.283 Q659.674,489.888 648.584,489.888 Q635.046,489.888 625.097,509.297 Q615.638,527.89 615.638,544.2 Q615.638,556.432 626.565,556.432 Q640.266,556.432 649.399,538.818 Q659.674,518.92 659.674,502.283 z" fill="#000000"/>
  </g>
</svg>
