<?xml version="1.0" encoding="UTF-8"?>
<!DOCTYPE svg PUBLIC "-//W3C//DTD SVG 1.1//EN" "http://www.w3.org/Graphics/SVG/1.1/DTD/svg11.dtd">
<svg version="1.1" xmlns="http://www.w3.org/2000/svg" xmlns:xlink="http://www.w3.org/1999/xlink" x="0" y="0" width="287.862" height="402.878" viewBox="0, 0, 287.862, 402.878">
  <g id="Layer_1_Copy" transform="translate(-356.069, -298.561)">
    <path d="M579.034,476.547 Q579.034,542.087 538.553,620.478 Q502.57,689.873 448.596,689.873 Q405.545,689.873 405.545,641.682 Q405.545,577.427 442.813,504.177 Q482.009,427.713 535.34,427.713 Q579.034,427.713 579.034,476.547 z M628.51,518.313 Q628.51,472.692 604.093,444.419 Q579.676,416.147 540.481,416.147 Q489.077,416.147 433.817,459.198 Q398.477,486.828 377.273,526.023 Q356.069,565.219 356.069,602.487 Q356.069,646.18 381.771,673.81 Q407.473,701.439 447.311,701.439 Q505.783,701.439 559.757,653.891 Q628.51,593.491 628.51,518.313 z M535.34,328.761 Q535.34,299.846 510.281,299.846 Q494.217,299.846 483.615,310.127 Q473.013,320.408 473.013,335.829 Q473.013,362.173 500,362.173 Q514.779,362.173 525.059,352.535 Q535.34,342.897 535.34,328.761 z M643.931,326.833 Q643.931,298.561 617.586,298.561 Q602.165,298.561 591.885,309.163 Q581.604,319.765 581.604,335.186 Q581.604,360.888 609.233,360.888 Q623.369,360.888 633.65,350.929 Q643.931,340.969 643.931,326.833 z" fill="#000000"/>
  </g>
</svg>
