<?xml version="1.0" encoding="utf-8"?>
<svg xmlns="http://www.w3.org/2000/svg" height="1024" version="1.0" viewBox="0 0 4096 4096" width="1024">
<path d="M2681.23 467.04 c-3.35 1.67 -8.74 5.61 -11.99 8.75 -3.52 3.41 -6.95 7.96&#xA;-8.52 11.29 -1.44 3.07 -3.55 8.92 -4.69 13.00 -1.13 4.08 -2.50 12.35 -3.03&#xA;18.37 -0.53 6.03 -0.73 12.55 -0.45 14.50 0.28 1.95 1.00 13.67 1.59 26.04&#xA;0.59 12.38 1.21 24.97 1.38 28.00 0.17 3.03 0.84 8.20 1.49 11.50 0.65 3.30&#xA;0.96 7.65 0.69 9.66 -0.27 2.01 -0.10 4.05 0.39 4.53 0.48 0.48 1.30 4.24&#xA;1.83 8.34 0.52 4.11 2.53 17.14 4.47 28.97 4.50 27.49 8.98 55.92 10.17 64.50&#xA;0.83 6.05 3.04 16.62 4.89 23.50 1.86 6.88 4.07 16.55 4.92 21.50 0.85 4.95&#xA;2.01 13.28 2.58 18.50 0.57 5.22 1.47 15.35 2.01 22.50 0.53 7.15 1.45 20.20&#xA;2.03 29.00 0.58 8.80 2.03 25.22 3.21 36.50 2.11 20.09 2.12 21.79 0.99 85.50&#xA;-0.85 47.72 -1.57 68.19 -2.73 77.00 -0.87 6.60 -2.48 15.82 -3.59 20.50&#xA;-1.11 4.68 -2.86 16.67 -3.91 26.67 -1.11 10.62 -2.35 34.09 -2.99 56.50&#xA;-0.60 21.08 -1.56 47.56 -2.15 58.83 -0.58 11.28 -1.25 29.49 -1.48 40.49&#xA;-0.24 11.32 -0.02 20.86 0.51 22.00 0.51 1.11 1.43 4.99 2.04 8.63 0.61 3.64&#xA;1.11 13.65 1.11 22.25 0.00 8.60 -0.40 15.63 -0.88 15.63 -0.49 0.00 -1.61&#xA;-1.11 -2.50 -2.46 -0.89 -1.36 -1.62 -3.25 -1.62 -4.20 0.00 -1.12 -0.34&#xA;-1.39 -0.97 -0.76 -0.53 0.53 -1.43 4.11 -1.98 7.95 -0.55 3.84 -1.02 11.83&#xA;-1.03 17.77 -0.01 6.17 0.67 14.09 1.60 18.50 1.21 5.75 1.47 10.63 1.05&#xA;19.21 -0.43 8.68 -1.55 15.42 -4.58 27.50 -2.21 8.80 -4.92 21.62 -6.02 28.50&#xA;-1.11 6.88 -2.20 16.78 -2.43 22.00 -0.23 5.22 -0.90 10.73 -1.50 12.24 -0.59&#xA;1.51 -2.99 4.81 -5.31 7.33 -2.33 2.53 -5.83 5.39 -7.78 6.37 -1.95 0.98&#xA;-7.85 3.20 -13.12 4.94 -6.50 2.15 -13.24 5.44 -21.00 10.26 -6.28 3.91&#xA;-14.35 9.48 -17.93 12.40 -3.57 2.91 -9.04 7.69 -12.14 10.63 -3.10 2.93&#xA;-10.29 10.73 -15.98 17.33 -5.68 6.60 -13.49 15.20 -17.36 19.12 l-7.02 7.12&#xA;-13.50 4.21 c-7.43 2.31 -17.10 5.36 -21.50 6.78 -4.40 1.41 -11.38 4.13&#xA;-15.50 6.04 -4.12 1.91 -9.36 4.28 -11.63 5.27 -2.27 0.99 -5.87 3.62 -8.00&#xA;5.85 -2.69 2.82 -8.57 6.41 -19.37 11.84 -8.53 4.28 -16.85 8.38 -18.50 9.10&#xA;-1.65 0.72 -6.38 2.72 -10.50 4.44 -4.12 1.72 -9.30 4.32 -11.50 5.77 -2.20&#xA;1.45 -4.68 2.91 -5.50 3.24 -0.82 0.33 -12.07 4.93 -25.00 10.23 -19.90 8.16&#xA;-45.39 18.39 -74.50 29.90 -13.20 5.22 -28.95 11.48 -35.00 13.91 -6.05 2.43&#xA;-19.32 7.69 -29.50 11.68 -10.18 3.99 -27.28 10.29 -38.00 14.00 -10.72 3.70&#xA;-24.22 8.87 -30.00 11.48 -5.78 2.61 -17.93 8.50 -27.00 13.09 -9.07 4.59&#xA;-22.80 12.12 -30.50 16.72 -7.70 4.61 -21.20 12.57 -30.00 17.68 -8.80 5.12&#xA;-25.68 15.05 -37.50 22.08 -11.83 7.02 -28.26 17.22 -36.53 22.65 -8.27 5.43&#xA;-20.87 13.89 -28.00 18.79 -7.13 4.90 -18.37 12.97 -24.97 17.92 -6.60 4.96&#xA;-14.47 11.00 -17.50 13.42 -3.03 2.42 -11.35 9.89 -18.50 16.60 -7.15 6.71&#xA;-17.50 16.21 -23.00 21.12 -5.50 4.91 -14.72 13.22 -20.50 18.48 -5.78 5.26&#xA;-13.65 12.18 -17.50 15.39 -3.85 3.21 -16.45 14.66 -28.00 25.46 -11.55 10.80&#xA;-31.31 29.76 -43.91 42.14 -12.60 12.38 -26.55 26.35 -31.00 31.04 -4.45 4.69&#xA;-12.82 13.68 -18.59 19.96 -5.78 6.29 -15.42 16.62 -21.43 22.97 -6.01 6.35&#xA;-16.18 17.65 -22.59 25.11 -6.41 7.47 -15.69 18.94 -20.63 25.50 -4.93 6.56&#xA;-11.23 15.30 -14.00 19.42 -2.76 4.12 -9.65 13.80 -15.30 21.50 -5.65 7.70&#xA;-16.90 23.90 -24.98 36.00 -8.09 12.10 -16.90 25.60 -19.58 30.00 -2.68 4.40&#xA;-14.08 21.93 -25.33 38.96 -11.25 17.03 -24.62 38.25 -29.71 47.16 -5.09 8.91&#xA;-10.26 17.56 -11.49 19.23 -1.23 1.67 -3.05 5.35 -4.05 8.18 -1.00 2.83 -2.99&#xA;7.16 -4.43 9.62 -2.05 3.50 -3.12 4.41 -4.90 4.17 -1.26 -0.16 -3.02 0.31&#xA;-3.92 1.06 -0.90 0.75 -1.64 2.12 -1.64 3.04 -0.00 0.92 -1.35 3.81 -3.00&#xA;6.41 -2.45 3.87 -2.73 4.83 -1.50 5.30 0.82 0.32 1.50 1.45 1.50 2.52 0.00&#xA;1.07 -0.74 3.38 -1.65 5.14 -0.91 1.76 -2.57 4.44 -3.69 5.95 -1.12 1.51&#xA;-2.83 2.75 -3.81 2.75 -1.07 0.00 -1.58 0.53 -1.27 1.33 0.28 0.73 0.07 2.50&#xA;-0.48 3.92 -0.54 1.43 -3.04 5.38 -5.54 8.78 -2.50 3.40 -4.55 6.86 -4.55&#xA;7.69 0.00 0.83 -5.93 13.49 -13.18 28.14 -7.25 14.65 -13.70 27.31 -14.33&#xA;28.14 -0.63 0.82 -1.68 3.30 -2.33 5.50 -0.65 2.20 -2.64 6.70 -4.42 10.00&#xA;-2.25 4.17 -3.92 6.10 -5.46 6.32 -1.71 0.24 -2.34 1.16 -2.75 4.00 -0.29&#xA;2.03 -1.15 6.16 -1.91 9.18 -0.76 3.03 -4.30 12.70 -7.86 21.50 -3.57 8.80&#xA;-8.12 20.28 -10.12 25.50 -2.00 5.22 -4.62 11.07 -5.83 13.00 -1.21 1.93&#xA;-2.25 3.95 -2.31 4.50 -0.06 0.55 -0.41 1.68 -0.78 2.50 -0.36 0.82 -2.68&#xA;9.82 -5.16 20.00 -2.47 10.18 -7.66 29.07 -11.53 42.00 -3.87 12.93 -9.32&#xA;32.05 -12.10 42.50 -2.79 10.45 -6.61 24.40 -8.49 31.00 -1.88 6.60 -5.26&#xA;20.10 -7.51 30.00 -2.25 9.90 -4.47 22.28 -4.93 27.50 -0.46 5.22 -1.75 18.05&#xA;-2.87 28.50 -1.12 10.45 -2.31 21.70 -2.65 25.00 -0.33 3.30 -1.07 9.07 -1.65&#xA;12.81 -0.88 5.74 -1.41 6.95 -3.39 7.71 -1.29 0.49 -3.08 2.01 -3.97 3.37&#xA;-1.29 1.97 -1.76 6.17 -2.17 20.73 -0.42 14.73 -0.19 19.33 1.03 23.24 1.19&#xA;3.78 1.30 5.44 0.50 7.50 -0.64 1.65 -0.78 5.90 -0.37 11.29 0.40 5.24 0.25&#xA;10.17 -0.37 12.50 -0.57 2.12 -1.49 8.81 -2.05 14.86 -0.56 6.05 -1.95 26.97&#xA;-3.09 46.50 -1.26 21.66 -2.30 54.64 -2.66 84.60 -0.55 45.62 -0.47 49.34&#xA;1.17 52.50 1.52 2.94 1.87 7.89 2.58 36.29 0.45 18.09 1.11 38.57 1.47 45.50&#xA;0.36 6.93 1.08 14.18 1.59 16.11 0.51 1.93 1.82 11.15 2.91 20.50 1.09 9.35&#xA;1.98 22.85 1.99 30.00 0.01 7.15 0.46 19.47 1.00 27.37 0.54 7.90 1.70 20.67&#xA;2.59 28.38 l1.61 14.01 -2.35 2.29 c-1.29 1.26 -6.40 3.71 -11.35 5.44 -4.95&#xA;1.73 -17.96 5.61 -28.91 8.62 -10.95 3.01 -20.32 5.73 -20.83 6.04 -0.51 0.31&#xA;-3.70 0.94 -7.09 1.39 -3.40 0.45 -13.15 2.45 -21.67 4.43 -8.53 1.99 -18.42&#xA;4.25 -22.00 5.04 -3.58 0.78 -15.50 3.50 -26.50 6.04 -11.00 2.54 -25.62 5.87&#xA;-32.50 7.41 -6.88 1.54 -17.03 3.97 -22.56 5.41 -5.53 1.44 -14.08 3.32&#xA;-19.00 4.18 -4.92 0.86 -14.34 2.45 -20.94 3.53 -6.60 1.08 -14.70 2.63&#xA;-18.00 3.45 -3.30 0.82 -13.54 2.41 -22.76 3.54 -9.22 1.13 -20.02 2.88&#xA;-24.00 3.90 -3.98 1.02 -10.84 2.32 -15.24 2.91 -4.40 0.58 -13.40 1.54&#xA;-20.00 2.12 -6.60 0.58 -14.02 1.28 -16.50 1.54 -2.48 0.27 -14.62 0.61&#xA;-27.00 0.77 -15.64 0.20 -23.19 0.67 -24.75 1.53 -1.68 0.93 -2.74 0.99 -4.18&#xA;0.21 -1.06 -0.57 -4.56 -1.04 -7.78 -1.04 -3.96 0.00 -6.64 0.57 -8.32 1.75&#xA;-2.09 1.48 -5.21 1.79 -19.97 2.03 -9.62 0.15 -40.43 0.52 -68.46 0.82 -51.63&#xA;0.55 -55.52 0.34 -62.90 -3.34 -1.81 -0.90 -7.44 -1.61 -15.25 -1.92 l-12.39&#xA;-0.44 0.00 2.57 c0.00 2.26 -0.41 2.52 -3.42 2.52 -1.88 -0.00 -4.13 -0.27&#xA;-5.00 -0.61 -0.87 -0.33 -1.58 -1.43 -1.58 -2.44 0.00 -1.01 -0.40 -2.08&#xA;-0.88 -2.38 -0.49 -0.30 -10.72 -0.79 -22.75 -1.10 -12.03 -0.30 -25.24 -0.91&#xA;-29.37 -1.34 -4.12 -0.43 -13.80 -2.04 -21.50 -3.56 -7.70 -1.53 -21.65 -4.37&#xA;-31.00 -6.31 -9.35 -1.94 -21.27 -4.32 -26.50 -5.29 -5.23 -0.97 -12.65 -2.50&#xA;-16.50 -3.39 -3.85 -0.89 -13.08 -3.62 -20.50 -6.07 -7.42 -2.44 -28.12&#xA;-10.48 -46.00 -17.87 -17.88 -7.38 -39.86 -16.84 -48.85 -21.01 -8.99 -4.17&#xA;-22.94 -11.05 -31.00 -15.29 -8.06 -4.23 -20.50 -11.06 -27.65 -15.18 -7.15&#xA;-4.11 -18.37 -11.05 -24.94 -15.42 -6.57 -4.37 -15.57 -10.68 -20.00 -14.02&#xA;-4.43 -3.34 -12.49 -9.88 -17.90 -14.53 -5.41 -4.65 -19.36 -17.48 -31.00&#xA;-28.51 -11.64 -11.03 -28.61 -27.51 -37.72 -36.62 -9.10 -9.11 -22.85 -24.06&#xA;-30.54 -33.22 -7.70 -9.16 -17.85 -22.21 -22.56 -29.00 -4.71 -6.79 -12.94&#xA;-19.32 -18.28 -27.85 -5.34 -8.53 -12.21 -20.68 -15.25 -27.00 -3.05 -6.32&#xA;-8.14 -18.03 -11.31 -26.00 -3.18 -7.98 -7.81 -21.03 -10.31 -29.00 -3.03&#xA;-9.69 -13.27 -44.82 -17.78 -61.00 -1.61 -5.78 -3.79 -15.68 -4.84 -22.00&#xA;-1.37 -8.23 -2.08 -19.04 -2.51 -38.00 -0.47 -20.74 -0.16 -33.57 1.42 -59.00&#xA;1.11 -17.88 2.50 -36.64 3.09 -41.71 0.58 -5.06 2.17 -13.16 3.52 -18.00 1.35&#xA;-4.84 3.81 -16.14 5.46 -25.12 1.65 -8.98 5.26 -25.18 8.02 -36.00 2.76&#xA;-10.82 6.19 -23.95 7.63 -29.18 1.43 -5.22 6.53 -18.50 11.32 -29.50 4.80&#xA;-11.00 10.86 -26.75 13.48 -35.00 2.62 -8.25 5.32 -17.47 6.00 -20.50 0.68&#xA;-3.03 1.75 -10.47 2.38 -16.55 0.62 -6.08 1.13 -15.08 1.13 -20.00 -0.00&#xA;-4.92 -0.46 -10.58 -1.01 -12.57 -0.55 -1.99 -2.11 -5.14 -3.46 -7.00 -1.35&#xA;-1.86 -4.11 -6.15 -6.15 -9.54 -3.15 -5.24 -4.85 -6.84 -11.50 -10.80 -4.29&#xA;-2.55 -10.65 -5.93 -14.14 -7.51 -3.48 -1.58 -7.97 -3.18 -9.98 -3.55 -2.81&#xA;-0.53 -4.93 -0.10 -9.25 1.88 -3.08 1.41 -11.91 6.52 -19.63 11.35 -7.72 4.83&#xA;-19.68 13.01 -26.58 18.17 -6.90 5.16 -17.36 14.25 -23.25 20.19 -5.89 5.94&#xA;-13.71 14.99 -17.37 20.11 -3.66 5.12 -7.90 10.72 -9.42 12.44 -1.52 1.72&#xA;-3.78 4.41 -5.02 5.97 -1.24 1.56 -2.25 3.17 -2.25 3.57 -0.00 0.41 -1.12&#xA;2.45 -2.49 4.53 -1.37 2.09 -2.85 4.24 -3.29 4.79 -0.44 0.55 -2.21 3.47&#xA;-3.93 6.50 -1.72 3.03 -4.51 8.19 -6.21 11.47 -1.70 3.28 -3.08 6.37 -3.08&#xA;6.85 0.00 0.48 -0.85 2.07 -1.89 3.53 -1.04 1.46 -2.34 4.23 -2.89 6.15 -0.55&#xA;1.93 -3.91 10.93 -7.48 20.00 -3.56 9.07 -7.88 21.22 -9.59 27.00 -1.71 5.78&#xA;-3.98 13.65 -5.04 17.50 -1.06 3.85 -3.05 10.84 -4.43 15.53 -1.38 4.69 -3.66&#xA;14.14 -5.07 21.00 -1.41 6.86 -3.22 16.52 -4.03 21.47 -0.80 4.95 -2.00 13.83&#xA;-2.67 19.72 -0.67 5.90 -0.95 13.24 -0.64 16.31 0.33 3.23 -0.00 8.40 -0.80&#xA;12.28 -0.99 4.79 -1.39 15.22 -1.41 36.69 -0.02 16.50 0.36 33.38 0.83 37.50&#xA;0.48 4.12 1.80 14.78 2.94 23.68 1.14 8.90 3.69 26.00 5.65 38.00 1.96 12.00&#xA;4.44 28.12 5.50 35.82 1.06 7.70 2.37 16.33 2.92 19.18 0.55 2.85 1.95 8.92&#xA;3.11 13.50 1.16 4.58 6.19 20.69 11.16 35.82 4.98 15.12 11.64 34.70 14.82&#xA;43.50 3.17 8.80 8.34 22.07 11.47 29.50 3.14 7.43 8.86 20.70 12.72 29.50&#xA;3.86 8.80 11.67 25.45 17.35 37.00 5.69 11.55 13.36 26.40 17.04 33.00 3.69&#xA;6.60 10.75 18.53 15.71 26.50 4.95 7.97 14.88 22.38 22.05 32.00 7.17 9.62&#xA;17.76 23.35 23.52 30.50 5.77 7.15 13.42 16.38 17.01 20.50 3.59 4.12 11.05&#xA;12.41 16.56 18.42 5.52 6.00 20.64 20.40 33.62 32.00 12.97 11.60 28.29 24.97&#xA;34.05 29.72 5.76 4.75 14.94 11.88 20.40 15.83 5.46 3.96 13.94 9.68 18.85&#xA;12.71 4.91 3.04 16.84 10.03 26.52 15.54 9.68 5.51 25.92 15.00 36.10 21.08&#xA;10.18 6.08 23.45 14.28 29.50 18.22 6.05 3.94 14.34 9.10 18.42 11.46 4.08&#xA;2.36 11.10 6.00 15.59 8.07 4.50 2.08 15.75 6.77 25.01 10.43 9.26 3.66 25.42&#xA;9.51 35.91 13.00 10.49 3.49 25.74 8.17 33.90 10.40 8.16 2.23 22.56 5.66&#xA;32.00 7.62 9.44 1.96 30.00 5.81 45.67 8.54 15.67 2.73 35.92 6.08 45.00 7.43&#xA;9.08 1.35 22.80 3.13 30.50 3.94 7.70 0.81 15.58 1.95 17.50 2.53 1.92 0.58&#xA;7.33 1.51 12.00 2.06 4.67 0.56 19.98 1.67 34.00 2.48 14.02 0.81 39.67 1.75&#xA;57.00 2.10 31.21 0.62 31.54 0.65 35.87 3.12 l4.37 2.50 40.54 0.95 c40.29&#xA;0.94 40.57 0.97 45.44 3.43 4.87 2.47 5.13 2.49 40.59 3.08 22.37 0.37 45.52&#xA;0.14 62.02 -0.62 21.02 -0.97 27.17 -1.57 30.50 -2.99 3.61 -1.54 8.91 -1.87&#xA;39.17 -2.48 19.25 -0.39 41.75 -1.13 50.00 -1.64 8.25 -0.52 19.28 -1.35&#xA;24.50 -1.87 5.22 -0.51 11.47 -1.64 13.88 -2.51 3.61 -1.30 9.42 -1.58 33.08&#xA;-1.58 l28.70 0.00 4.88 -3.23 4.88 -3.23 17.11 -0.15 c9.41 -0.08 21.58 -0.45&#xA;27.04 -0.83 5.46 -0.38 13.08 -0.90 16.93 -1.18 3.85 -0.27 23.20 -0.88 43.00&#xA;-1.36 19.80 -0.48 40.50 -1.16 46.00 -1.51 5.50 -0.36 12.03 -1.27 14.50&#xA;-2.04 2.54 -0.79 13.43 -1.86 25.00 -2.46 11.28 -0.58 27.25 -1.75 35.50&#xA;-2.58 8.25 -0.84 18.15 -2.21 22.00 -3.06 5.05 -1.11 16.75 -1.77 42.00 -2.35&#xA;19.45 -0.45 36.55 -1.28 38.50 -1.87 1.92 -0.59 8.45 -1.56 14.50 -2.15 6.05&#xA;-0.59 13.72 -1.51 17.04 -2.03 3.32 -0.52 10.52 -1.41 16.00 -1.98 5.48 -0.57&#xA;15.36 -1.91 21.96 -2.99 6.60 -1.08 21.84 -2.42 33.87 -2.99 12.03 -0.57&#xA;26.90 -1.47 33.04 -2.01 6.14 -0.54 15.65 -1.44 21.13 -2.01 5.48 -0.57 13.79&#xA;-1.69 18.46 -2.50 4.67 -0.81 21.33 -3.04 37.00 -4.95 15.67 -1.91 35.47&#xA;-4.40 44.00 -5.53 8.53 -1.13 18.20 -2.93 21.50 -4.01 4.03 -1.31 16.20 -2.97&#xA;37.00 -5.02 19.01 -1.88 33.51 -3.80 37.50 -4.98 3.58 -1.05 13.47 -2.83&#xA;22.00 -3.94 8.53 -1.12 23.83 -3.20 34.00 -4.62 10.17 -1.42 22.10 -2.95&#xA;26.50 -3.40 4.40 -0.45 9.33 -1.34 10.95 -1.99 1.62 -0.64 7.70 -1.80 13.50&#xA;-2.58 5.80 -0.77 13.93 -2.29 18.05 -3.36 4.12 -1.07 12.68 -3.55 19.00 -5.52&#xA;6.32 -1.96 16.22 -5.34 22.00 -7.50 5.78 -2.16 14.55 -5.51 19.50 -7.44 4.95&#xA;-1.93 14.62 -5.15 21.50 -7.16 8.57 -2.50 13.70 -3.50 16.32 -3.17 2.10 0.27&#xA;5.60 1.67 7.78 3.11 2.24 1.48 7.58 7.50 12.27 13.84 4.57 6.17 11.30 14.01&#xA;14.95 17.42 3.66 3.41 11.04 9.52 16.41 13.58 5.37 4.06 14.64 10.64 20.61&#xA;14.63 5.96 3.99 15.29 9.47 20.73 12.17 5.44 2.70 13.26 6.05 17.37 7.43 4.11&#xA;1.38 12.19 3.62 17.96 4.99 5.76 1.36 16.12 3.38 23.01 4.49 6.89 1.11 19.63&#xA;2.68 28.31 3.51 8.68 0.82 23.65 2.41 33.28 3.53 9.62 1.12 22.45 2.45 28.50&#xA;2.95 6.05 0.51 22.47 1.62 36.50 2.46 14.03 0.85 38.32 2.00 54.00 2.56 15.68&#xA;0.56 38.40 1.46 50.50 2.00 12.10 0.53 37.53 1.43 56.50 1.99 18.97 0.56&#xA;41.70 1.49 50.50 2.07 8.80 0.58 17.43 1.50 19.17 2.05 1.74 0.55 3.90 2.11&#xA;4.80 3.48 0.90 1.37 3.07 3.15 4.83 3.96 1.76 0.81 11.30 3.29 21.20 5.52&#xA;9.90 2.23 24.30 5.38 32.00 7.01 7.70 1.63 18.72 4.06 24.50 5.40 5.78 1.34&#xA;18.38 3.35 28.01 4.45 9.63 1.10 22.23 2.67 28.00 3.48 5.77 0.81 12.08 2.14&#xA;14.02 2.95 2.51 1.05 10.11 1.71 26.50 2.31 12.64 0.46 31.15 0.83 41.14 0.83&#xA;17.26 0.00 18.31 -0.11 21.21 -2.25 3.00 -2.21 3.54 -2.25 32.34 -2.26 16.59&#xA;-0.00 30.86 -0.44 32.92 -1.01 2.67 -0.74 6.51 -3.98 14.51 -12.24 5.98 -6.18&#xA;13.84 -15.06 17.47 -19.74 3.62 -4.68 8.85 -11.88 11.62 -16.00 2.77 -4.12&#xA;6.84 -10.88 9.05 -15.00 2.21 -4.12 4.74 -9.76 5.63 -12.53 0.89 -2.76 3.45&#xA;-8.16 5.70 -12.00 2.50 -4.27 4.43 -9.11 4.99 -12.47 0.50 -3.03 0.91 -6.53&#xA;0.91 -7.79 0.00 -1.45 -1.96 -4.24 -5.32 -7.58 -2.93 -2.91 -6.32 -7.33 -7.53&#xA;-9.82 -1.24 -2.56 -2.47 -7.54 -2.81 -11.42 -0.34 -3.79 -1.45 -8.54 -2.46&#xA;-10.56 -1.01 -2.02 -3.54 -5.05 -5.61 -6.73 -2.07 -1.68 -6.24 -5.02 -9.27&#xA;-7.43 -3.03 -2.41 -8.12 -6.05 -11.31 -8.09 -3.19 -2.04 -8.81 -5.08 -12.49&#xA;-6.75 -3.68 -1.67 -14.57 -5.96 -24.19 -9.53 -9.62 -3.57 -20.67 -7.58 -24.55&#xA;-8.91 -3.96 -1.36 -8.56 -3.81 -10.50 -5.58 -1.90 -1.73 -5.25 -3.53 -7.45&#xA;-4.00 -2.20 -0.47 -7.28 -1.27 -11.29 -1.78 -4.01 -0.51 -12.11 -1.87 -18.00&#xA;-3.02 -5.89 -1.15 -13.41 -2.69 -16.71 -3.41 -3.86 -0.85 -9.67 -1.15 -16.29&#xA;-0.84 -5.66 0.27 -14.66 -0.04 -20.00 -0.69 -5.34 -0.65 -11.17 -1.63 -12.96&#xA;-2.20 -2.21 -0.69 -3.25 -1.65 -3.25 -2.97 0.00 -1.07 -0.56 -2.14 -1.25&#xA;-2.37 -0.69 -0.23 -8.00 -1.31 -16.25 -2.41 -8.25 -1.10 -19.95 -2.92 -26.00&#xA;-4.05 -6.05 -1.13 -15.67 -2.76 -21.37 -3.62 -5.71 -0.86 -11.01 -1.32 -11.79&#xA;-1.02 -0.78 0.30 -2.19 0.13 -3.13 -0.38 -0.94 -0.51 -5.09 -1.63 -9.21 -2.49&#xA;-4.12 -0.86 -11.10 -2.65 -15.50 -3.98 -4.40 -1.33 -14.30 -4.30 -22.00 -6.61&#xA;-7.70 -2.31 -17.60 -5.30 -22.00 -6.64 -4.40 -1.35 -21.47 -6.03 -37.94&#xA;-10.42 -16.47 -4.39 -37.84 -10.39 -47.50 -13.34 -9.66 -2.95 -21.77 -6.54&#xA;-26.91 -7.98 -5.15 -1.44 -16.40 -5.32 -25.00 -8.62 -8.60 -3.30 -19.92 -7.65&#xA;-25.14 -9.66 -5.22 -2.01 -14.90 -6.26 -21.50 -9.44 -6.60 -3.18 -15.38 -7.67&#xA;-19.50 -9.98 -4.12 -2.30 -9.87 -5.94 -12.77 -8.08 -2.90 -2.14 -6.81 -6.23&#xA;-8.68 -9.09 -1.88 -2.86 -5.05 -9.93 -7.06 -15.70 -2.83 -8.15 -3.77 -12.63&#xA;-4.20 -20.04 -0.40 -6.88 -0.08 -11.86 1.14 -17.87 0.93 -4.58 5.90 -21.22&#xA;11.04 -36.96 5.15 -15.74 10.95 -33.80 12.90 -40.13 1.95 -6.32 4.95 -16.68&#xA;6.67 -23.00 1.72 -6.32 5.32 -19.38 8.01 -29.00 2.69 -9.62 7.63 -28.94 10.98&#xA;-42.93 3.35 -13.99 6.75 -26.98 7.54 -28.88 0.79 -1.90 3.02 -5.19 4.94 -7.32&#xA;2.86 -3.16 3.49 -4.64 3.46 -8.12 -0.02 -2.34 -0.65 -7.14 -1.41 -10.67 -0.93&#xA;-4.35 -1.09 -7.17 -0.49 -8.75 0.69 -1.82 1.64 -2.33 4.34 -2.33 2.69 0.00&#xA;3.63 -0.50 4.23 -2.25 0.42 -1.24 0.65 -13.12 0.50 -26.40 -0.16 -14.17 0.13&#xA;-24.92 0.70 -26.00 0.53 -1.02 1.67 -3.65 2.52 -5.85 0.86 -2.20 2.14 -6.70&#xA;2.85 -10.00 0.97 -4.48 1.23 -16.00 1.03 -45.43 -0.15 -21.68 -0.69 -48.23&#xA;-1.21 -59.00 -0.59 -12.29 -1.52 -21.40 -2.48 -24.48 -0.85 -2.70 -1.53 -6.30&#xA;-1.53 -8.00 0.01 -2.55 1.23 -4.19 7.03 -9.44 4.37 -3.95 8.00 -8.29 9.61&#xA;-11.50 1.42 -2.84 5.12 -7.90 8.22 -11.26 3.10 -3.36 6.54 -7.63 7.65 -9.49&#xA;1.11 -1.87 3.90 -4.38 6.21 -5.59 2.30 -1.21 12.65 -9.01 22.98 -17.33 10.34&#xA;-8.33 22.44 -17.58 26.90 -20.56 4.46 -2.98 11.38 -6.77 15.39 -8.43 4.00&#xA;-1.65 8.23 -3.02 9.39 -3.05 1.16 -0.02 3.73 -0.62 5.71 -1.33 1.98 -0.71&#xA;8.55 -4.08 14.61 -7.51 6.06 -3.42 12.29 -7.55 13.84 -9.17 1.97 -2.06 3.79&#xA;-2.95 6.02 -2.95 2.56 0.00 3.40 0.55 4.26 2.75 0.59 1.51 1.53 6.12 2.09&#xA;10.25 0.56 4.12 1.28 9.07 1.58 11.00 0.31 1.93 0.95 19.47 1.43 39.00 0.72&#xA;29.02 1.29 38.15 3.17 50.00 2.03 12.84 2.30 18.27 2.39 47.50 0.07 23.13&#xA;0.46 34.20 1.33 37.00 0.68 2.20 1.58 10.62 2.01 18.72 0.42 8.10 1.06 15.01&#xA;1.42 15.37 0.36 0.36 2.68 0.88 5.15 1.16 2.48 0.28 5.14 1.24 5.92 2.13 0.78&#xA;0.89 1.96 5.22 2.62 9.62 0.67 4.40 1.44 23.30 1.71 42.00 0.37 25.30 0.86&#xA;35.02 1.89 38.00 0.76 2.20 1.88 6.90 2.49 10.44 0.61 3.54 5.61 19.74 11.11&#xA;36.00 5.50 16.26 12.42 36.98 15.37 46.06 2.95 9.07 9.47 29.55 14.49 45.50&#xA;5.02 15.95 11.39 35.30 14.16 43.00 2.77 7.70 8.40 22.32 12.52 32.50 4.12&#xA;10.18 10.62 25.44 14.45 33.91 3.83 8.48 9.92 20.63 13.54 27.00 3.61 6.37&#xA;9.80 16.54 13.74 22.59 3.94 6.05 11.60 16.85 17.00 24.00 5.41 7.15 12.58&#xA;16.15 15.93 20.00 3.35 3.85 12.03 13.53 19.28 21.50 7.25 7.97 18.06 18.85&#xA;24.01 24.17 5.95 5.32 14.36 12.61 18.69 16.20 4.33 3.59 11.30 8.31 15.50&#xA;10.48 4.20 2.17 10.11 4.68 13.13 5.58 3.03 0.90 12.93 2.51 22.00 3.59 10.18&#xA;1.21 22.89 1.97 33.18 1.97 9.17 0.00 20.17 -0.48 24.44 -1.07 4.27 -0.59&#xA;10.71 -2.19 14.32 -3.54 3.61 -1.35 10.50 -4.69 15.30 -7.42 4.81 -2.73 9.62&#xA;-4.96 10.69 -4.96 1.07 0.00 2.61 0.94 3.42 2.09 0.81 1.15 2.26 1.94 3.24&#xA;1.75 0.98 -0.19 3.38 -2.63 5.34 -5.42 1.96 -2.79 5.26 -6.75 7.32 -8.79 2.07&#xA;-2.04 6.19 -6.96 9.16 -10.92 2.97 -3.97 6.78 -9.94 8.47 -13.28 1.81 -3.59&#xA;3.86 -10.18 5.01 -16.13 1.60 -8.24 1.87 -12.91 1.49 -25.88 l-0.46 -15.82&#xA;-4.87 -5.15 c-2.68 -2.83 -6.48 -8.34 -8.45 -12.25 -2.54 -5.04 -8.44 -12.71&#xA;-20.33 -26.41 -9.21 -10.61 -19.81 -22.33 -23.55 -26.04 -3.74 -3.71 -9.47&#xA;-8.55 -12.74 -10.77 -3.26 -2.22 -12.74 -7.62 -21.06 -12.00 -8.32 -4.38&#xA;-17.24 -9.52 -19.84 -11.43 -2.59 -1.90 -8.31 -7.20 -12.69 -11.77 -4.39&#xA;-4.57 -10.51 -12.41 -13.61 -17.41 -3.10 -5.01 -7.64 -13.10 -10.09 -17.99&#xA;-2.45 -4.89 -8.15 -18.12 -12.66 -29.39 -4.51 -11.28 -11.06 -29.05 -14.56&#xA;-39.50 -3.50 -10.45 -7.71 -24.40 -9.35 -31.00 -1.64 -6.60 -3.73 -17.13&#xA;-4.64 -23.40 -1.33 -9.16 -1.45 -13.00 -0.61 -19.50 0.57 -4.45 1.33 -28.57&#xA;1.68 -53.60 0.35 -25.03 0.82 -45.69 1.05 -45.93 0.23 -0.23 1.76 0.86 3.41&#xA;2.44 2.39 2.29 3.25 2.62 4.24 1.63 0.88 -0.88 1.44 -8.15 1.90 -24.94 0.65&#xA;-23.34 1.51 -30.95 7.24 -64.20 1.37 -7.97 3.23 -18.10 4.13 -22.50 0.90&#xA;-4.40 2.26 -10.77 3.04 -14.15 0.78 -3.38 2.78 -12.61 4.45 -20.50 1.67 -7.89&#xA;4.36 -19.30 5.96 -25.35 1.61 -6.05 5.13 -17.75 7.83 -26.00 2.70 -8.25 8.54&#xA;-24.68 12.98 -36.50 4.44 -11.82 9.89 -25.84 12.10 -31.14 2.21 -5.30 9.73&#xA;-21.05 16.69 -35.00 6.97 -13.95 14.03 -27.38 15.69 -29.86 1.66 -2.47 4.39&#xA;-5.96 6.07 -7.75 1.97 -2.09 4.00 -3.25 5.72 -3.25 1.47 0.00 6.84 1.37 11.94&#xA;3.05 5.10 1.68 11.80 4.32 14.88 5.88 3.09 1.55 7.19 3.15 9.11 3.54 1.93&#xA;0.40 5.07 1.94 7.00 3.44 1.93 1.49 7.49 4.83 12.36 7.40 4.87 2.58 9.71 4.69&#xA;10.75 4.69 1.56 0.00 1.89 -0.75 1.89 -4.42 0.00 -2.43 0.26 -5.09 0.57 -5.91&#xA;0.45 -1.16 1.26 -1.29 3.68 -0.60 1.71 0.49 3.57 1.35 4.13 1.91 0.56 0.56&#xA;1.58 1.02 2.26 1.02 0.68 0.00 4.07 1.31 7.52 2.92 3.46 1.61 6.64 2.70 7.07&#xA;2.44 0.43 -0.27 1.48 0.21 2.32 1.05 0.85 0.85 3.39 2.04 5.65 2.64 2.26 0.61&#xA;6.63 1.52 9.70 2.02 3.08 0.50 11.89 3.13 19.59 5.83 7.70 2.71 18.28 6.57&#xA;23.50 8.58 5.22 2.01 18.72 6.73 30.00 10.49 11.28 3.76 27.70 9.40 36.50&#xA;12.53 8.80 3.13 20.95 7.24 27.00 9.13 6.05 1.89 15.95 4.57 22.00 5.95 6.05&#xA;1.38 15.79 3.85 21.64 5.49 5.85 1.64 15.30 3.88 21.00 4.98 5.70 1.10 23.19&#xA;4.25 38.86 7.01 17.98 3.16 70.41 13.00 93.00 17.44 6.88 1.35 20.49 3.83&#xA;30.26 5.50 9.77 1.67 21.99 3.91 27.15 4.98 5.16 1.06 24.62 5.76 43.24 10.44&#xA;18.62 4.68 42.20 10.71 52.41 13.40 10.21 2.69 21.35 5.86 24.75 7.04 3.41&#xA;1.18 6.79 2.14 7.53 2.14 0.73 0.00 5.12 1.15 9.75 2.56 4.63 1.41 13.14 4.15&#xA;18.91 6.09 5.78 1.94 12.53 4.41 15.00 5.48 2.47 1.07 5.28 2.38 6.24 2.91&#xA;0.96 0.53 2.82 0.96 4.15 0.96 1.33 0.00 6.85 1.55 12.26 3.43 5.42 1.89&#xA;15.12 5.44 21.57 7.89 6.45 2.45 13.72 5.62 16.15 7.05 2.43 1.43 7.03 4.96&#xA;10.21 7.86 3.18 2.90 9.18 9.85 13.35 15.46 4.16 5.61 9.98 14.05 12.94 18.75&#xA;4.45 7.08 8.65 16.57 16.41 37.05 0.83 2.20 2.98 8.95 4.76 15.00 1.78 6.05&#xA;4.36 14.38 5.72 18.50 1.43 4.35 2.70 11.01 3.00 15.85 0.46 7.25 0.95 8.96&#xA;3.69 13.00 1.74 2.56 6.35 11.01 10.25 18.78 3.90 7.77 7.78 15.20 8.63 16.50&#xA;0.84 1.30 1.77 4.39 2.07 6.87 0.29 2.47 1.93 8.10 3.63 12.50 1.70 4.40 4.88&#xA;11.33 7.07 15.40 2.19 4.07 9.64 15.19 16.55 24.71 6.91 9.52 16.69 21.52&#xA;21.71 26.65 5.03 5.14 13.04 12.14 17.81 15.55 4.77 3.42 11.30 7.50 14.50&#xA;9.07 3.20 1.57 9.43 4.02 13.83 5.45 4.40 1.43 13.18 3.24 19.50 4.03 7.92&#xA;0.99 13.59 1.17 18.22 0.58 3.69 -0.47 8.19 -1.62 10.00 -2.55 1.81 -0.93&#xA;5.34 -3.43 7.85 -5.54 4.12 -3.48 5.11 -3.85 10.25 -3.85 4.02 0.00 5.69 0.38&#xA;5.69 1.31 0.00 0.72 0.92 2.30 2.04 3.50 1.15 1.23 3.25 2.19 4.80 2.19 1.52&#xA;0.00 4.84 -1.31 7.37 -2.92 2.53 -1.61 6.40 -5.32 8.59 -8.25 2.19 -2.93 6.48&#xA;-10.32 9.52 -16.42 3.04 -6.10 7.44 -15.55 9.78 -21.00 2.34 -5.45 7.12&#xA;-18.02 10.63 -27.92 3.51 -9.90 7.07 -20.44 7.90 -23.43 1.27 -4.51 1.47&#xA;-11.37 1.20 -40.50 -0.30 -31.74 -0.50 -35.39 -2.16 -38.43 -1.01 -1.85 -3.13&#xA;-9.67 -4.72 -17.38 -1.59 -7.71 -3.60 -16.55 -4.48 -19.64 -0.88 -3.09 -3.10&#xA;-10.37 -4.94 -16.19 -1.84 -5.81 -4.40 -12.12 -5.69 -14.03 -1.29 -1.90 -3.42&#xA;-6.82 -4.74 -10.93 -1.32 -4.11 -2.96 -8.15 -3.64 -8.97 -0.68 -0.82 -4.73&#xA;-8.47 -8.98 -17.00 -4.25 -8.53 -11.11 -21.12 -15.24 -28.00 -4.13 -6.88&#xA;-12.93 -20.60 -19.55 -30.50 -6.62 -9.90 -15.19 -22.28 -19.03 -27.50 -3.84&#xA;-5.22 -10.61 -14.00 -15.04 -19.50 -4.43 -5.50 -11.84 -14.28 -16.47 -19.50&#xA;-4.63 -5.22 -15.67 -17.32 -24.53 -26.88 -8.86 -9.56 -20.16 -20.85 -25.11&#xA;-25.09 -4.95 -4.24 -12.64 -10.41 -17.09 -13.69 -4.45 -3.29 -17.10 -11.51&#xA;-28.12 -18.28 -11.01 -6.77 -27.60 -17.83 -36.85 -24.58 -9.25 -6.75 -22.47&#xA;-15.65 -29.38 -19.78 -6.91 -4.13 -16.98 -9.37 -22.37 -11.65 -5.40 -2.28&#xA;-21.37 -8.79 -35.50 -14.48 -14.13 -5.69 -30.64 -11.94 -36.69 -13.90 -6.05&#xA;-1.96 -14.82 -4.89 -19.50 -6.51 -4.68 -1.63 -19.30 -7.68 -32.50 -13.45&#xA;-13.20 -5.77 -30.30 -13.39 -38.00 -16.92 -7.70 -3.54 -25.70 -11.42 -40.00&#xA;-17.53 -14.30 -6.10 -36.12 -15.36 -48.50 -20.59 -12.38 -5.22 -29.03 -12.39&#xA;-37.00 -15.93 -7.97 -3.54 -21.25 -9.83 -29.50 -13.98 -8.25 -4.15 -19.78&#xA;-10.70 -25.63 -14.56 -5.85 -3.86 -12.95 -9.42 -15.79 -12.36 -2.83 -2.94&#xA;-8.01 -9.35 -11.50 -14.25 -3.49 -4.90 -9.95 -15.25 -14.36 -23.00 -4.41&#xA;-7.75 -12.64 -22.64 -18.29 -33.09 -5.65 -10.45 -13.32 -25.01 -17.06 -32.35&#xA;-4.83 -9.50 -8.66 -19.16 -13.28 -33.50 -3.57 -11.08 -7.81 -24.43 -9.43&#xA;-29.65 -1.61 -5.22 -3.44 -12.65 -4.06 -16.50 -0.62 -3.85 -1.59 -11.72 -2.16&#xA;-17.50 -0.57 -5.78 -1.44 -21.05 -1.94 -33.95 -0.51 -13.30 -0.53 -27.72&#xA;-0.04 -33.33 0.68 -7.79 0.56 -10.60 -0.56 -13.27 -0.78 -1.87 -1.42 -5.54&#xA;-1.42 -8.17 0.00 -2.63 0.64 -8.14 1.42 -12.24 0.78 -4.10 2.06 -7.93 2.84&#xA;-8.50 0.78 -0.57 1.95 -2.05 2.61 -3.28 0.71 -1.33 1.03 -4.75 0.78 -8.43&#xA;-0.32 -4.72 0.41 -9.53 3.04 -20.26 1.90 -7.74 4.52 -15.89 5.81 -18.12 1.96&#xA;-3.38 2.33 -5.36 2.25 -12.00 -0.07 -6.16 0.47 -9.53 2.43 -14.95 1.39 -3.85&#xA;7.52 -19.46 13.63 -34.68 6.11 -15.22 14.30 -36.82 18.21 -48.00 3.91 -11.18&#xA;8.64 -26.17 10.51 -33.32 1.87 -7.15 4.54 -18.85 5.92 -26.00 1.38 -7.15 3.44&#xA;-19.30 4.58 -27.00 1.14 -7.70 3.60 -23.90 5.48 -36.00 1.87 -12.10 4.08&#xA;-27.85 4.91 -35.00 0.82 -7.15 2.22 -20.20 3.10 -29.00 0.88 -8.80 1.78&#xA;-23.30 1.99 -32.21 0.31 -12.68 0.76 -16.92 2.08 -19.48 1.09 -2.10 1.65&#xA;-5.41 1.58 -9.29 -0.06 -3.31 -1.00 -11.65 -2.10 -18.52 -1.10 -6.88 -2.47&#xA;-19.47 -3.06 -28.00 -0.59 -8.53 -1.72 -23.82 -2.51 -34.00 -0.80 -10.18&#xA;-1.94 -25.25 -2.54 -33.50 -0.60 -8.25 -1.97 -21.48 -3.04 -29.41 -1.07 -7.92&#xA;-2.83 -19.62 -3.92 -26.00 -1.09 -6.38 -2.85 -15.64 -3.92 -20.59 -1.06 -4.95&#xA;-2.39 -10.19 -2.96 -11.65 -0.56 -1.46 -1.53 -5.47 -2.16 -8.92 -0.88 -4.85&#xA;-0.85 -7.69 0.11 -12.54 1.00 -5.03 1.00 -7.43 -0.01 -12.08 -0.69 -3.19&#xA;-2.39 -8.28 -3.77 -11.31 -1.38 -3.03 -3.41 -7.97 -4.49 -11.00 -1.09 -3.03&#xA;-2.40 -9.78 -2.91 -15.00 -0.51 -5.22 -1.30 -13.32 -1.75 -18.00 -0.47 -4.84&#xA;-1.74 -10.56 -2.95 -13.28 -1.17 -2.63 -3.26 -9.40 -4.65 -15.04 -1.39 -5.65&#xA;-3.87 -17.22 -5.51 -25.72 -1.65 -8.50 -3.65 -18.61 -4.46 -22.46 -0.81 -3.85&#xA;-2.02 -12.42 -2.69 -19.05 -1.15 -11.32 -1.09 -12.47 0.87 -19.00 1.15 -3.82&#xA;2.83 -9.88 3.75 -13.45 0.91 -3.57 5.48 -17.07 10.16 -30.00 4.68 -12.93&#xA;10.58 -27.32 13.11 -32.00 2.54 -4.68 7.71 -13.64 11.49 -19.93 3.78 -6.28&#xA;12.61 -19.33 19.61 -29.00 7.00 -9.67 19.52 -27.47 27.82 -39.57 8.30 -12.10&#xA;17.46 -25.82 20.36 -30.50 2.89 -4.68 9.16 -14.57 13.92 -22.00 4.76 -7.43&#xA;12.96 -20.25 18.21 -28.50 5.25 -8.25 12.71 -20.85 16.58 -28.00 3.87 -7.15&#xA;8.15 -15.70 9.52 -19.00 1.37 -3.30 3.22 -8.18 4.12 -10.84 0.90 -2.66 4.73&#xA;-16.16 8.52 -30.00 3.79 -13.84 7.85 -27.59 9.03 -30.57 1.18 -2.98 2.77&#xA;-9.73 3.53 -15.00 0.76 -5.27 1.67 -15.66 2.03 -23.08 0.36 -7.43 0.18 -20.70&#xA;-0.40 -29.50 -0.70 -10.69 -1.86 -19.21 -3.50 -25.67 -1.35 -5.32 -4.04&#xA;-13.32 -5.98 -17.79 -1.94 -4.47 -5.53 -10.92 -7.99 -14.33 -2.46 -3.41 -6.65&#xA;-8.30 -9.31 -10.86 -2.66 -2.56 -7.99 -6.67 -11.84 -9.13 -3.85 -2.46 -12.36&#xA;-7.48 -18.90 -11.14 -6.55 -3.66 -16.59 -8.70 -22.31 -11.19 -5.73 -2.49&#xA;-17.06 -6.96 -25.19 -9.91 -9.00 -3.28 -26.67 -8.29 -45.19 -12.84 -16.72&#xA;-4.10 -36.03 -9.10 -42.91 -11.11 -6.88 -2.01 -22.61 -7.03 -34.97 -11.17&#xA;-12.36 -4.14 -23.38 -8.00 -24.50 -8.60 -1.12 -0.59 -4.98 -3.91 -8.57 -7.38&#xA;-3.94 -3.80 -8.90 -7.38 -12.50 -9.04 -4.63 -2.13 -8.20 -2.90 -15.96 -3.44&#xA;-5.50 -0.38 -12.03 -1.39 -14.50 -2.23 -2.47 -0.84 -7.43 -2.44 -11.00 -3.54&#xA;-3.57 -1.11 -17.24 -4.58 -30.36 -7.71 l-23.86 -5.70 -7.64 1.67 c-5.49 1.20&#xA;-18.61 2.08 -46.70 3.12 -22.20 0.83 -40.45 1.94 -42.28 2.58 -1.88 0.66&#xA;-4.64 0.85 -6.66 0.47 -2.94 -0.55 -3.59 -1.19 -4.40 -4.36 -0.52 -2.04 -1.63&#xA;-7.76 -2.46 -12.71 -0.83 -4.95 -4.22 -20.25 -7.54 -34.00 -3.32 -13.75 -7.18&#xA;-31.18 -8.57 -38.73 -1.40 -7.55 -3.68 -16.77 -5.08 -20.49 -1.40 -3.72 -3.73&#xA;-8.78 -5.18 -11.25 -1.45 -2.47 -4.69 -6.71 -7.20 -9.41 -2.69 -2.89 -7.03&#xA;-6.08 -10.57 -7.76 -3.30 -1.57 -7.25 -2.85 -8.78 -2.85 -1.53 -0.00 -4.44&#xA;0.69 -6.46 1.54 -2.02 0.85 -4.53 2.31 -5.58 3.25 -1.04 0.94 -2.96 3.82&#xA;-4.27 6.39 -1.30 2.57 -3.32 8.65 -4.47 13.50 -1.16 4.85 -3.15 17.82 -4.42&#xA;28.82 -1.28 11.00 -2.84 24.05 -3.47 29.00 -0.63 4.95 -1.77 12.38 -2.53&#xA;16.50 -0.76 4.12 -2.12 12.22 -3.04 18.00 -0.91 5.78 -2.51 14.78 -3.55 20.00&#xA;-1.04 5.22 -2.60 11.89 -3.47 14.81 -0.87 2.92 -2.46 6.06 -3.54 6.98 -1.08&#xA;0.92 -4.31 2.28 -7.19 3.01 -2.88 0.73 -8.84 1.77 -13.24 2.30 -4.40 0.53&#xA;-10.32 1.62 -13.15 2.43 -2.83 0.81 -8.76 1.47 -13.16 1.47 -7.62 0.00 -8.48&#xA;-0.24 -17.85 -4.98 -5.41 -2.74 -14.60 -8.55 -20.41 -12.91 -5.81 -4.37&#xA;-13.12 -10.35 -16.24 -13.30 -3.12 -2.95 -7.14 -6.21 -8.93 -7.24 -1.79 -1.03&#xA;-5.96 -3.77 -9.26 -6.10 -3.30 -2.33 -11.18 -9.06 -17.50 -14.97 -6.32 -5.90&#xA;-15.78 -14.42 -21.00 -18.93 -5.22 -4.51 -20.97 -17.40 -35.00 -28.65 -14.03&#xA;-11.25 -29.32 -23.44 -34.00 -27.09 -4.68 -3.65 -15.70 -12.80 -24.50 -20.35&#xA;-8.80 -7.55 -18.95 -15.66 -22.56 -18.03 -3.61 -2.37 -9.33 -5.24 -12.72&#xA;-6.38 -3.39 -1.14 -7.00 -2.07 -8.03 -2.07 -1.03 0.00 -4.61 1.37 -7.96 3.04z" fill="#000000" fill-rule="evenodd" stroke="#000000" stroke-linejoin="round" stroke-width="0.80"/>
<path d="M1359.13 2817.75 c-0.71 2.61 -1.51 12.26 -1.82 21.37 -0.40 11.58 -0.23&#xA;18.06 0.64 21.69 0.69 2.86 1.60 5.19 2.04 5.19 0.44 0.00 1.12 -0.79 1.53&#xA;-1.75 0.40 -0.96 1.09 -10.85 1.53 -21.96 0.44 -11.12 1.08 -21.12 1.43&#xA;-22.23 0.39 -1.23 -0.06 -2.98 -1.17 -4.51 -1.00 -1.37 -2.06 -2.50 -2.35&#xA;-2.52 -0.30 -0.02 -1.12 2.11 -1.82 4.72z M765.75 3387.65 c-1.04 0.29 -1.75&#xA;1.41 -1.75 2.82 0.00 1.90 0.66 2.56 3.28 3.05 1.80 0.34 7.24 0.70 12.08&#xA;0.80 5.85 0.12 9.14 -0.22 9.80 -1.02 0.55 -0.66 0.84 -2.01 0.65 -3.00 -0.36&#xA;-1.87 -1.23 -2.03 -14.82 -2.74 -4.12 -0.22 -8.29 -0.17 -9.25 0.10z M2802.02&#xA;3394.47 c-0.65 0.79 -1.03 2.24 -0.84 3.23 0.25 1.30 1.09 1.71 3.03 1.48&#xA;1.47 -0.17 3.52 0.14 4.54 0.68 1.03 0.55 6.93 1.71 13.12 2.57 6.19 0.86&#xA;12.35 1.29 13.69 0.96 3.12 -0.78 3.24 -4.14 0.19 -5.30 -1.24 -0.47 -6.30&#xA;-1.39 -11.25 -2.05 -4.95 -0.66 -11.01 -1.20 -13.47 -1.21 -2.46 -0.00 -5.04&#xA;-0.31 -5.96 -0.80 -1.14 -0.61 -2.24 -0.54 -3.04 0.43z" fill="#979898" fill-rule="evenodd" stroke="#979898" stroke-linejoin="round" stroke-width="0.80"/>
<path d="M791.50 3388.83 c-0.28 0.28 -0.50 1.99 -0.50 3.80 0.00 2.39 0.62 3.63 2.25&#xA;4.52 1.24 0.67 3.15 1.42 4.25 1.65 1.10 0.24 11.90 0.63 24.00 0.87 12.10&#xA;0.24 23.46 0.17 25.25 -0.16 3.14 -0.58 3.25 -0.78 3.25 -5.45 0.00 -4.42&#xA;-0.24 -4.91 -2.68 -5.52 -1.47 -0.37 -14.52 -0.57 -29.00 -0.44 -14.48 0.13&#xA;-26.55 0.45 -26.82 0.73z" fill="#6a6a6a" fill-rule="evenodd" stroke="#6a6a6a" stroke-linejoin="round" stroke-width="0.80"/>
<path d="M2762.38 3388.87 c0.93 1.03 5.39 2.84 9.90 4.02 4.52 1.18 13.17 3.17 19.22&#xA;4.42 6.05 1.25 12.01 2.11 13.25 1.91 1.42 -0.22 2.25 -1.05 2.25 -2.25 0.00&#xA;-1.04 -0.97 -2.42 -1.93 -2.93 -0.96 -0.51 -6.29 -1.59 -12.07 -2.51 -13.00&#xA;-2.08 -29.69 -4.53 -30.82 -4.53 -1.32 0.00 -1.30 0.21 0.20 1.87z" fill="#8c8d8d" fill-rule="evenodd" stroke="#8c8d8d" stroke-linejoin="round" stroke-width="0.80"/>
<path d="M850.00 3389.50 c0.00 1.26 2.33 1.51 14.75 1.55 8.11 0.03 18.35 0.23 22.75&#xA;0.45 4.40 0.22 17.00 0.52 28.00 0.67 19.28 0.26 31.50 -1.00 31.50 -3.24&#xA;0.00 -0.56 -19.30 -0.93 -48.50 -0.93 -42.44 0.00 -48.50 0.19 -48.50 1.50z" fill="#686168" fill-rule="evenodd" stroke="none"/>
<path d="M2837.00 3397.70 c0.00 0.18 2.11 4.16 2.77 5.23 0.15 0.24 1.86 0.56 3.80&#xA;0.71 2.31 0.18 3.72 -0.21 4.07 -1.12 0.45 -1.16 3.38 -0.87 3.22 0.32 -0.32&#xA;2.44 0.51 3.21 3.40 3.13 1.79 -0.05 7.97 0.17 13.75 0.49 5.78 0.31 14.10&#xA;0.74 18.50 0.95 l8.00 0.38 -5.50 -1.76 c-3.46 -1.11 -6.29 -1.47 -7.62 -0.97&#xA;-1.35 0.51 -2.50 0.42 -3.15 -0.23 -0.57 -0.57 -4.06 -1.66 -7.76 -2.44 -5.50&#xA;-1.15 -7.02 -1.18 -8.29 -0.15 -1.20 0.97 -1.39 0.98 -0.83 0.04 0.47 -0.78&#xA;-0.09 -1.40 -1.56 -1.73 -2.40 -0.53 -22.79 -3.08 -22.79 -2.85z" fill="#7a6f63" fill-rule="evenodd" stroke="none"/>
</svg>